# This file uses centimeters as units for non-parametric coordinates.

v -20.000000 -0.125000 20.000000
v 20.000000 -0.125000 20.000000
v -20.000000 0.125000 20.000000
v 20.000000 0.125000 20.000000
v -20.000000 0.125000 -20.000000
v 20.000000 0.125000 -20.000000
v -20.000000 -0.125000 -20.000000
v 20.000000 -0.125000 -20.000000
vt -19.381708 -19.420319
vt 20.458929 -19.420319
vt 20.458929 20.420319
vt -19.381708 20.420319
vt -19.381708 -19.420319
vt 20.458929 -19.420319
vt 20.458929 20.420319
vt -19.381708 20.420319
vt -19.460894 20.420322
vt -19.460894 -19.420319
vt -19.211887 -19.420319
vt -19.211887 20.420322
vt -19.460892 20.420322
vt -19.460892 -19.420319
vt -19.211891 -19.420319
vt -19.211891 20.420322
vt -19.460894 20.420319
vt -19.460894 -19.420319
vt -19.211891 -19.420319
vt -19.211891 20.420319
vt -19.460892 20.420322
vt -19.460892 -19.420319
vt -19.211885 -19.420319
vt -19.211885 20.420322
vn 0.000000 0.000000 1.000000
vn 0.000000 0.000000 1.000000
vn 0.000000 0.000000 1.000000
vn 0.000000 0.000000 1.000000
vn 0.000000 1.000000 0.000000
vn 0.000000 1.000000 0.000000
vn 0.000000 1.000000 0.000000
vn 0.000000 1.000000 0.000000
vn 0.000000 0.000000 -1.000000
vn 0.000000 0.000000 -1.000000
vn 0.000000 0.000000 -1.000000
vn 0.000000 0.000000 -1.000000
vn 0.000000 -1.000000 0.000000
vn 0.000000 -1.000000 0.000000
vn 0.000000 -1.000000 0.000000
vn 0.000000 -1.000000 0.000000
vn 1.000000 0.000000 0.000000
vn 1.000000 0.000000 0.000000
vn 1.000000 0.000000 0.000000
vn 1.000000 0.000000 0.000000
vn -1.000000 0.000000 0.000000
vn -1.000000 0.000000 0.000000
vn -1.000000 0.000000 0.000000
vn -1.000000 0.000000 0.000000
s 1
f 1/9/1 2/10/2 3/12/3
f 3/12/3 2/10/2 4/11/4
s 2
f 3/1/5 4/2/6 5/4/7
f 5/4/7 4/2/6 6/3/8
s 3
f 5/17/9 6/18/10 7/20/11
f 7/20/11 6/18/10 8/19/12
s 4
f 7/5/13 8/6/14 1/8/15
f 1/8/15 8/6/14 2/7/16
s 5
f 2/13/17 8/14/18 4/16/19
f 4/16/19 8/14/18 6/15/20
s 6
f 7/21/21 1/22/22 5/24/23
f 5/24/23 1/22/22 3/23/24
